<svg width="188" height="163" viewBox="0 0 188 163" fill="none" xmlns="http://www.w3.org/2000/svg">
<path fill-rule="evenodd" clip-rule="evenodd" d="M38.8308 8.58925C58.0266 10.5924 76.9099 22.139 92.5265 38.241C115.856 62.3024 131.902 96.506 130.975 123.798C130.949 124.36 130.443 124.836 129.851 124.859C129.244 124.883 128.779 124.45 128.798 123.881C129.707 97.013 113.842 63.3633 90.8605 39.674C75.6015 23.9341 57.1992 12.5724 38.433 10.6224C37.8369 10.5625 37.4507 10.0584 37.5587 9.49392C37.6674 8.94318 38.2347 8.52936 38.8308 8.58925Z" fill="#E64A3B" stroke="#E64A3B" stroke-width="3"/>
<path fill-rule="evenodd" clip-rule="evenodd" d="M139.984 154.42C139.659 138.679 137.665 125.008 143.979 108.874C144.199 108.333 144.821 108.017 145.384 108.184C145.946 108.337 146.231 108.906 146.018 109.439C139.074 127.193 142.404 141.919 142.197 159.82C142.182 160.787 141.429 161.014 141.246 161.054C140.975 161.118 140.532 161.138 140.172 160.722C140.102 160.64 139.99 160.459 139.874 160.182C139.665 159.646 139.34 158.516 139.14 158.027C138.551 156.623 137.926 155.242 137.337 153.837C135.652 149.82 133.925 145.836 131.879 141.996C124.248 127.618 118.11 115.809 100.992 110.917C100.422 110.758 100.145 110.195 100.357 109.648C100.57 109.115 101.2 108.806 101.756 108.966C119.465 114.021 125.949 126.117 133.847 140.983C135.911 144.876 137.67 148.913 139.371 152.969C139.57 153.458 139.777 153.939 139.984 154.42Z" fill="#E64A3B" stroke="#E64A3B" stroke-width="3"/>
</svg>
