<svg width="42" height="30" viewBox="0 0 42 30" fill="none" xmlns="http://www.w3.org/2000/svg">
<path fill-rule="evenodd" clip-rule="evenodd" d="M0 2.25C0 1.65326 0.207421 1.08097 0.576634 0.659009C0.945846 0.237053 1.44661 0 1.96875 0H40.0312C40.5534 0 41.0542 0.237053 41.4234 0.659009C41.7926 1.08097 42 1.65326 42 2.25C42 2.84674 41.7926 3.41903 41.4234 3.84099C41.0542 4.26295 40.5534 4.5 40.0312 4.5H1.96875C1.44661 4.5 0.945846 4.26295 0.576634 3.84099C0.207421 3.41903 0 2.84674 0 2.25ZM0 15C0 14.4033 0.207421 13.831 0.576634 13.409C0.945846 12.9871 1.44661 12.75 1.96875 12.75H40.0312C40.5534 12.75 41.0542 12.9871 41.4234 13.409C41.7926 13.831 42 14.4033 42 15C42 15.5967 41.7926 16.169 41.4234 16.591C41.0542 17.0129 40.5534 17.25 40.0312 17.25H1.96875C1.44661 17.25 0.945846 17.0129 0.576634 16.591C0.207421 16.169 0 15.5967 0 15ZM1.96875 25.5C1.44661 25.5 0.945846 25.7371 0.576634 26.159C0.207421 26.581 0 27.1533 0 27.75C0 28.3467 0.207421 28.919 0.576634 29.341C0.945846 29.7629 1.44661 30 1.96875 30H40.0312C40.5534 30 41.0542 29.7629 41.4234 29.341C41.7926 28.919 42 28.3467 42 27.75C42 27.1533 41.7926 26.581 41.4234 26.159C41.0542 25.7371 40.5534 25.5 40.0312 25.5H1.96875Z" fill="white"/>
</svg>
