<svg width="45" height="44" viewBox="0 0 45 44" fill="none" xmlns="http://www.w3.org/2000/svg">
<path d="M10.6304 24.3472H34.3696M22.5 24.3472V41.6644M13.1739 20.2241V12.8024H11.1866C10.0574 12.8024 8.96021 13.1679 8.06806 13.8412C7.17591 14.5146 6.53947 15.4575 6.25904 16.5215L3 28.8827V29.295H14.8696V31.7689C14.8696 34.2428 14.8696 35.892 16.1413 38.3659C16.1413 38.3659 17.413 40.8398 19.1087 40.8398M31.8261 20.2241V12.8024H33.8134C34.9426 12.8024 36.0398 13.1679 36.9319 13.8412C37.8241 14.5146 38.4605 15.4575 38.741 16.5215L42 28.8827V29.295H30.1304V31.7689C30.1304 34.2428 30.1304 35.892 28.8587 38.3659C28.8587 38.3659 27.587 40.8398 25.8913 40.8398M12.9196 9.50389C12.9196 9.50389 10.2065 7.85463 10.2065 5.79306C10.2065 5.02847 10.5188 4.29519 11.0747 3.75454C11.6305 3.21389 12.3844 2.91016 13.1705 2.91016C13.9566 2.91016 14.7105 3.21389 15.2664 3.75454C15.8222 4.29519 16.1345 5.02847 16.1345 5.79306C16.1345 7.85463 13.4283 9.50389 13.4283 9.50389H12.9196ZM32.0804 9.50389C32.0804 9.50389 34.7935 7.85463 34.7935 5.79306C34.7935 5.02759 34.4808 4.29348 33.9243 3.75221C33.3679 3.21094 32.6131 2.90686 31.8261 2.90686C30.1881 2.90686 28.8655 4.19988 28.8655 5.79306C28.8655 7.85463 31.5717 9.50389 31.5717 9.50389H32.0804Z" stroke="white" stroke-width="3" stroke-linecap="round" stroke-linejoin="round"/>
<defs>
<rect width="45" height="43.6023" fill="white"/>
</defs>
</svg>
