<svg width="67" height="71" viewBox="0 0 67 71" fill="none" xmlns="http://www.w3.org/2000/svg">
<path d="M45.3642 7.60712H52.5269C53.7933 7.60712 55.0079 8.14143 55.9034 9.0925C56.7989 10.0436 57.302 11.3335 57.302 12.6785V63.3928C57.302 64.7379 56.7989 66.0278 55.9034 66.9789C55.0079 67.9299 53.7933 68.4643 52.5269 68.4643H14.3259C13.0595 68.4643 11.8449 67.9299 10.9494 66.9789C10.0539 66.0278 9.55078 64.7379 9.55078 63.3928V12.6785C9.55078 11.3335 10.0539 10.0436 10.9494 9.0925C11.8449 8.14143 13.0595 7.60712 14.3259 7.60712H21.4886" stroke="#E64A3B" stroke-width="6" stroke-linecap="round" stroke-linejoin="round"/>
<path d="M40.5888 2.53571H26.2634C23.6262 2.53571 21.4883 4.80626 21.4883 7.60713V10.1428C21.4883 12.9437 23.6262 15.2143 26.2634 15.2143H40.5888C43.226 15.2143 45.3639 12.9437 45.3639 10.1428V7.60713C45.3639 4.80626 43.226 2.53571 40.5888 2.53571Z" stroke="#E64A3B" stroke-width="6" stroke-linecap="round" stroke-linejoin="round"/>
<path d="M21.4883 43.1072L31.0385 50.7143L42.9763 30.4286" stroke="#E64A3B" stroke-width="6" stroke-linecap="round" stroke-linejoin="round"/>
</svg>
