<svg width="50" height="47" viewBox="0 0 50 47" fill="none" xmlns="http://www.w3.org/2000/svg">
<path d="M34.3382 29.954L33.1059 31.1809C33.1059 31.1809 30.1728 34.0951 22.1697 26.138C14.1666 18.1809 17.0997 15.2667 17.0997 15.2667L17.8743 14.4921C19.7891 12.5909 19.9705 9.5359 18.2995 7.30423L14.887 2.7461C12.8178 -0.0163967 8.82302 -0.382021 6.45323 1.97423L2.20115 6.19923C1.02844 7.36923 0.243021 8.88048 0.337813 10.5596C0.581563 14.8578 2.52615 24.1013 13.3703 34.8859C24.8726 46.3205 35.6653 46.7755 40.0772 46.3638C41.4747 46.2338 42.688 45.5242 43.6657 44.5492L47.5116 40.7251C50.1116 38.144 49.3803 33.7159 46.0545 31.9094L40.8816 29.0955C38.6987 27.9092 36.0445 28.2586 34.3382 29.954Z" fill="white"/>
</svg>
