<svg width="79" height="72" viewBox="0 0 79 72" fill="none" xmlns="http://www.w3.org/2000/svg">
<path d="M67.3327 10.5908H67.3277L75.603 12.0922C76.0474 12.1729 76.4128 12.4687 76.5411 12.8676C76.606 13.0614 76.6117 13.2675 76.5578 13.464C76.5039 13.6605 76.3924 13.8401 76.235 13.9836L69.4558 20.1418C68.6447 20.8767 67.5455 21.2893 66.3995 21.2891H60.7806L46.6594 34.1119C46.9288 35.0353 46.9783 36.0002 46.8047 36.9423C46.6311 37.8844 46.2383 38.7822 45.6525 39.5757C45.0667 40.3692 44.3013 41.0403 43.4074 41.5442C42.5135 42.0482 41.5115 42.3734 40.4682 42.4983C39.4249 42.6232 38.3643 42.5448 37.357 42.2684C36.3497 41.9921 35.4189 41.524 34.6265 40.8955C33.8341 40.2669 33.1984 39.4923 32.7617 38.6232C32.3249 37.7542 32.0972 36.8106 32.0938 35.8554C32.0945 34.8241 32.3565 33.8067 32.8594 32.8819C33.3623 31.9571 34.0927 31.1497 34.9942 30.522C35.8957 29.8943 36.9441 29.4631 38.0584 29.2618C39.1728 29.0605 40.3231 29.0945 41.4207 29.3611L55.5469 16.5338V11.4379C55.5469 10.3981 56.0011 9.39859 56.8109 8.66355L63.595 2.50538C63.7531 2.36254 63.951 2.26127 64.1674 2.21234C64.3839 2.16341 64.611 2.16865 64.8244 2.2275C65.2639 2.34403 65.5897 2.67569 65.6786 3.07907L67.3327 10.5908Z" fill="#E64A3B"/>
<path d="M9.87468 35.8554C9.87975 39.7007 10.7933 43.5004 12.5536 46.998C14.3139 50.4955 16.8802 53.6098 20.0791 56.1306C23.2781 58.6513 27.0355 60.52 31.0977 61.6106C35.16 62.7012 39.4326 62.9883 43.6275 62.4525C47.8224 61.9167 51.8418 60.5705 55.4148 58.5047C58.9878 56.4389 62.0312 53.7016 64.3396 50.4774C66.648 47.2531 68.1679 43.617 68.7966 39.8143C69.4253 36.0115 69.1482 32.1306 67.9841 28.4334C67.8207 28.0014 67.7558 27.5438 67.7934 27.0883C67.831 26.6329 67.9704 26.1891 68.2029 25.7841C68.4355 25.3791 68.7564 25.0213 69.1462 24.7325C69.536 24.4437 69.9864 24.2299 70.4701 24.1042C70.9538 23.9784 71.4607 23.9433 71.9598 24.001C72.4589 24.0588 72.9398 24.2081 73.3733 24.4399C73.8068 24.6718 74.1838 24.9813 74.4814 25.3496C74.7789 25.7179 74.9907 26.1373 75.104 26.5823C77.3581 33.7423 76.9299 41.379 73.8867 48.2943C70.8434 55.2095 65.3573 61.0121 58.2889 64.7917C51.2206 68.5712 42.97 70.1139 34.8315 69.1777C26.6931 68.2414 19.1273 64.8792 13.3211 59.6186C7.52118 54.3494 3.81329 47.4811 2.77951 40.0918C1.74574 32.7026 3.44464 25.2109 7.60947 18.7931C11.7743 12.3752 18.1692 7.39457 25.7902 4.63315C33.4112 1.87174 41.8267 1.48591 49.7154 3.53625C50.6547 3.78549 51.4471 4.36212 51.9195 5.14011C52.3919 5.91811 52.5058 6.8342 52.2363 7.6882C51.9669 8.54219 51.336 9.26465 50.4815 9.69768C49.627 10.1307 48.6184 10.2391 47.6762 9.99919C43.2649 8.85031 38.62 8.64727 34.1075 9.40607C29.5951 10.1649 25.3385 11.8648 21.6733 14.3717C18.0081 16.8787 15.0346 20.1243 12.9871 23.8525C10.9396 27.5807 9.87413 31.6896 9.87468 35.8554Z" fill="#E64A3B"/>
<path d="M24.6879 35.8554C24.6882 38.3052 25.4253 40.7084 26.8197 42.8059C28.2142 44.9033 30.213 46.6154 32.6006 47.7574C34.9882 48.8994 37.674 49.428 40.3683 49.2862C43.0625 49.1444 45.663 48.3375 47.8892 46.9527C50.115 45.5644 51.8803 43.6501 52.9943 41.4169C54.1082 39.1837 54.5283 36.7166 54.2092 34.2823C54.1229 33.6916 54.2116 33.0907 54.4662 32.5414C54.7208 31.9922 55.132 31.5144 55.6576 31.1574C56.1832 30.8004 56.8041 30.577 57.4565 30.5102C58.1088 30.4434 58.7689 30.5356 59.3689 30.7774C59.9688 31.016 60.4882 31.3948 60.8742 31.8751C61.2602 32.3554 61.4989 32.92 61.5661 33.5114C62.1026 37.6711 61.1992 41.8792 58.9814 45.5517C56.7635 49.2241 53.3412 52.1788 49.1895 54.0056C45.0377 55.8323 40.3624 56.4406 35.8126 55.7459C31.2627 55.0512 27.0639 53.088 23.799 50.1289C20.5341 47.1697 18.365 43.3613 17.5927 39.2323C16.8205 35.1033 17.4835 30.8585 19.4896 27.087C21.4958 23.3155 24.7456 20.2045 28.788 18.1857C32.8304 16.167 37.4649 15.3405 42.0482 15.8212C42.5389 15.8626 43.0157 15.9924 43.4504 16.2032C43.8852 16.4139 44.2692 16.7013 44.58 17.0485C44.8908 17.3958 45.1222 17.7958 45.2604 18.2252C45.3987 18.6547 45.4412 19.1048 45.3853 19.5493C45.3294 19.9939 45.1764 20.4238 44.9351 20.8139C44.6938 21.204 44.3691 21.5465 43.9801 21.8212C43.5912 22.096 43.1457 22.2975 42.6698 22.4139C42.1939 22.5303 41.6972 22.5594 41.2088 22.4993C39.1333 22.2806 37.0304 22.4629 35.0381 23.0342C33.0458 23.6056 31.2091 24.5531 29.6489 25.8145C28.0886 27.0759 26.8399 28.6226 25.9849 30.3532C25.1299 32.0837 24.6879 33.9588 24.6879 35.8554Z" fill="#E64A3B"/>
</svg>
