<svg width="74" height="72" viewBox="0 0 74 72" fill="none" xmlns="http://www.w3.org/2000/svg">
<path d="M62.1577 53.5583C63.591 51.05 64.666 48.1833 64.666 44.9583C64.666 36 57.4994 28.8333 48.541 28.8333C39.5827 28.8333 32.416 36 32.416 44.9583C32.416 53.9167 39.5827 61.0833 48.541 61.0833C51.766 61.0833 54.6327 60.0083 57.141 58.575L68.6077 70.0417L73.6244 65.025L62.1577 53.5583ZM48.541 53.9167C43.5243 53.9167 39.5827 49.975 39.5827 44.9583C39.5827 39.9417 43.5243 36 48.541 36C53.5577 36 57.4994 39.9417 57.4994 44.9583C57.4994 49.975 53.5577 53.9167 48.541 53.9167ZM35.9994 64.6667V71.8333C16.2193 71.8333 0.166016 55.78 0.166016 36C0.166016 16.22 16.2193 0.166656 35.9994 0.166656C53.3427 0.166656 67.7835 12.4933 71.116 28.8333H63.6985C62.5809 24.5041 60.4661 20.4963 57.5231 17.1302C54.5802 13.7641 50.8906 11.1332 46.7494 9.44749V10.9167C46.7494 14.8583 43.5243 18.0833 39.5827 18.0833H32.416V25.25C32.416 27.2208 30.8035 28.8333 28.8327 28.8333H21.666V36H28.8327V46.75H25.2493L8.08518 29.5858C7.61935 31.6642 7.33268 33.7783 7.33268 36C7.33268 51.8025 20.1968 64.6667 35.9994 64.6667Z" fill="#E64A3B"/>
</svg>
