<svg width="154" height="143" viewBox="0 0 154 143" fill="none" xmlns="http://www.w3.org/2000/svg">
<path fill-rule="evenodd" clip-rule="evenodd" d="M25.8813 5.02842C24.7373 22.1649 31.4168 38.5812 42.2245 53.2117C58.547 75.3063 84.2847 93.3357 107.048 103.651C121.354 110.136 133.372 110.092 148.777 113.547C149.401 113.687 149.784 114.269 149.633 114.847C149.483 115.423 148.853 115.78 148.232 115.638C132.647 112.143 120.5 112.145 106.027 105.585C82.9458 95.1253 56.8601 76.831 40.3075 54.4272C29.2013 39.3935 22.3872 22.5067 23.5622 4.89593C23.6016 4.30257 24.1507 3.8513 24.7911 3.88779C25.4315 3.92427 25.9206 4.43505 25.8813 5.02842Z" fill="#E64A3B" stroke="#E64A3B"/>
<path fill-rule="evenodd" clip-rule="evenodd" d="M151.423 116.967C151.367 116.958 150.996 116.886 150.679 116.858C149.365 116.731 147.044 116.704 144.114 116.831C134.284 117.267 117.632 119.446 109.083 126.039C108.59 126.419 107.859 126.355 107.448 125.898C107.038 125.441 107.102 124.763 107.595 124.383C116.49 117.524 133.777 115.133 144.004 114.682C145.374 114.622 146.619 114.594 147.699 114.596C144.949 112.908 142.157 111.289 139.339 109.695C131.223 105.109 125.228 99.5848 119.941 92.1861C119.587 91.6925 119.734 91.0224 120.268 90.696C120.801 90.3676 121.524 90.504 121.877 90.9994C126.966 98.1197 132.736 103.443 140.547 107.857C144.23 109.941 147.871 112.07 151.432 114.329C151.786 114.553 152.7 115.147 152.814 115.249C153.465 115.828 153.104 116.454 153.017 116.589C152.976 116.654 152.41 117.436 151.423 116.967ZM152.408 115.018C152.435 115.031 152.464 115.043 152.493 115.058C152.47 115.045 152.441 115.033 152.408 115.018Z" fill="#E64A3B" stroke="#E64A3B"/>
</svg>
