<svg width="38" height="44" viewBox="0 0 38 44" fill="none" xmlns="http://www.w3.org/2000/svg">
<path d="M14.625 0C15.056 0 15.4693 0.171205 15.774 0.475951C16.0788 0.780698 16.25 1.19402 16.25 1.625V7.04167C16.25 7.47264 16.0788 7.88597 15.774 8.19072C15.4693 8.49546 15.056 8.66667 14.625 8.66667C14.194 8.66667 13.7807 8.49546 13.476 8.19072C13.1712 7.88597 13 7.47264 13 7.04167V1.625C13 1.19402 13.1712 0.780698 13.476 0.475951C13.7807 0.171205 14.194 0 14.625 0ZM4.26833 4.26833C4.57302 3.96402 4.98604 3.7931 5.41667 3.7931C5.84729 3.7931 6.26031 3.96402 6.565 4.26833L10.3567 8.06C10.5163 8.20877 10.6444 8.38817 10.7332 8.5875C10.822 8.78683 10.8698 9.00201 10.8736 9.2202C10.8775 9.43839 10.8373 9.65512 10.7556 9.85746C10.6739 10.0598 10.5522 10.2436 10.3979 10.3979C10.2436 10.5522 10.0598 10.6739 9.85746 10.7556C9.65512 10.8373 9.43839 10.8775 9.2202 10.8736C9.00201 10.8698 8.78683 10.822 8.5875 10.7332C8.38817 10.6444 8.20877 10.5163 8.06 10.3567L4.26833 6.565C3.96402 6.26031 3.7931 5.84729 3.7931 5.41667C3.7931 4.98604 3.96402 4.57302 4.26833 4.26833ZM24.9817 4.26833C25.286 4.57302 25.4569 4.98604 25.4569 5.41667C25.4569 5.84729 25.286 6.26031 24.9817 6.565L21.19 10.3567C21.0412 10.5163 20.8618 10.6444 20.6625 10.7332C20.4632 10.822 20.248 10.8698 20.0298 10.8736C19.8116 10.8775 19.5949 10.8373 19.3925 10.7556C19.1902 10.6739 19.0064 10.5522 18.8521 10.3979C18.6978 10.2436 18.5761 10.0598 18.4944 9.85746C18.4127 9.65512 18.3725 9.43839 18.3764 9.2202C18.3802 9.00201 18.428 8.78683 18.5168 8.5875C18.6056 8.38817 18.7337 8.20877 18.8933 8.06L22.685 4.26833C22.9897 3.96402 23.4027 3.7931 23.8333 3.7931C24.264 3.7931 24.677 3.96402 24.9817 4.26833ZM0 14.625C0 14.194 0.171205 13.7807 0.475951 13.476C0.780698 13.1712 1.19402 13 1.625 13H7.04167C7.47264 13 7.88597 13.1712 8.19072 13.476C8.49546 13.7807 8.66667 14.194 8.66667 14.625C8.66667 15.056 8.49546 15.4693 8.19072 15.774C7.88597 16.0788 7.47264 16.25 7.04167 16.25H1.625C1.19402 16.25 0.780698 16.0788 0.475951 15.774C0.171205 15.4693 0 15.056 0 14.625ZM17.7168 14.053C15.8643 12.4627 13 13.78 13 16.2218V40.6488C13 43.2705 16.2392 44.5098 17.9877 42.5555L23.6513 36.2223C24.2493 35.555 25.09 35.1607 25.9848 35.1238L34.3048 34.7902C36.8983 34.6862 38.0207 31.4557 36.049 29.7635L17.719 14.053H17.7168ZM16.25 39.6218V17.0755L33.176 31.5835L25.8527 31.876C24.9757 31.9115 24.1147 32.1227 23.3208 32.4971C22.527 32.8715 21.8164 33.4015 21.2312 34.0557L16.25 39.6218Z" fill="white"/>
</svg>
