<svg width="45" height="44" viewBox="0 0 45 44" fill="none" xmlns="http://www.w3.org/2000/svg">
<path d="M0.5 3.1515C0.5 1.41075 1.9465 0 3.73125 0H41.2687C43.0535 0 44.5 1.41075 44.5 3.1515V40.8485C44.5 42.5892 43.0535 44 41.2687 44H3.73125C1.9465 44 0.5 42.5892 0.5 40.8485V3.1515ZM14.0932 36.8335V16.9648H7.4905V36.8335H14.0932ZM10.7933 14.2505C13.095 14.2505 14.5278 12.727 14.5278 10.8185C14.4865 8.86875 13.0978 7.3865 10.8372 7.3865C8.57675 7.3865 7.1 8.8715 7.1 10.8185C7.1 12.727 8.53275 14.2505 10.7493 14.2505H10.7933ZM24.2903 36.8335V25.7373C24.2903 25.1433 24.3342 24.5492 24.5103 24.1257C24.986 22.9405 26.0723 21.7113 27.8983 21.7113C30.288 21.7113 31.2423 23.5318 31.2423 26.2048V36.8335H37.845V25.4375C37.845 19.3325 34.589 16.4945 30.244 16.4945C26.7405 16.4945 25.1702 18.4195 24.2903 19.7752V19.844H24.2463C24.2609 19.821 24.2755 19.7981 24.2903 19.7752V16.9648H17.6903C17.7727 18.8293 17.6903 36.8335 17.6903 36.8335H24.2903Z" fill="white"/>
</svg>
