<svg width="46" height="37" viewBox="0 0 46 37" fill="none" xmlns="http://www.w3.org/2000/svg">
<path d="M40.666 0.833008H5.33268C4.16131 0.833008 3.03791 1.29833 2.20963 2.12662C1.38134 2.9549 0.916016 4.0783 0.916016 5.24967V31.7497C0.916016 32.921 1.38134 34.0444 2.20963 34.8727C3.03791 35.701 4.16131 36.1663 5.33268 36.1663H40.666C41.8374 36.1663 42.9608 35.701 43.7891 34.8727C44.6174 34.0444 45.0827 32.921 45.0827 31.7497V5.24967C45.0827 4.0783 44.6174 2.9549 43.7891 2.12662C42.9608 1.29833 41.8374 0.833008 40.666 0.833008ZM40.666 10.1875L22.9994 20.9686L5.33268 10.1875V5.24967H40.666V10.1875Z" fill="white"/>
</svg>
