<svg width="62" height="62" viewBox="0 0 62 62" fill="none" xmlns="http://www.w3.org/2000/svg">
<path d="M4.4 21.5H57.6M4.4 40.5H57.6M2.5 31C2.5 34.7427 3.23717 38.4487 4.66943 41.9065C6.10169 45.3643 8.20099 48.5061 10.8475 51.1525C13.4939 53.799 16.6357 55.8983 20.0935 57.3306C23.5513 58.7628 27.2573 59.5 31 59.5C34.7427 59.5 38.4487 58.7628 41.9065 57.3306C45.3643 55.8983 48.5061 53.799 51.1525 51.1525C53.799 48.5061 55.8983 45.3643 57.3306 41.9065C58.7628 38.4487 59.5 34.7427 59.5 31C59.5 23.4413 56.4973 16.1922 51.1525 10.8475C45.8078 5.50267 38.5587 2.5 31 2.5C23.4413 2.5 16.1922 5.50267 10.8475 10.8475C5.50267 16.1922 2.5 23.4413 2.5 31Z" stroke="#E64A3B" stroke-width="5" stroke-linecap="round" stroke-linejoin="round"/>
<path d="M29.4169 2.5C24.0822 11.0488 21.2539 20.9232 21.2539 31C21.2539 41.0768 24.0822 50.9512 29.4169 59.5M32.5836 2.5C37.9183 11.0488 40.7466 20.9232 40.7466 31C40.7466 41.0768 37.9183 50.9512 32.5836 59.5" stroke="#E64A3B" stroke-width="5" stroke-linecap="round" stroke-linejoin="round"/>
</svg>
